<svg width="436" height="416" viewBox="0 0 436 416" fill="none" xmlns="http://www.w3.org/2000/svg" xmlns:xlink="http://www.w3.org/1999/xlink">
<g opacity="0.2">
<path d="M436,207.846C436,322.636 338.398,415.692 218,415.692C97.602,415.692 0,322.636 0,207.846C0,93.056 97.602,0 218,0C338.398,0 436,93.056 436,207.846Z" fill="#FFFAEC"/>
</g>
<g opacity="0.5">
<path d="M390.027,207.846C390.027,298.43 313.009,371.862 218,371.862C122.992,371.862 45.973,298.43 45.973,207.846C45.973,117.263 122.992,43.832 218,43.832C313.009,43.832 390.027,117.263 390.027,207.846Z" fill="#F5EBEB"/>
</g>
<path d="M342.571,207.846C342.571,273.441 286.799,326.615 218,326.615C149.201,326.615 93.429,273.441 93.429,207.846C93.429,142.252 149.201,89.077 218,89.077C286.799,89.077 342.571,142.252 342.571,207.846Z" fill="url(#pf_0_1_368)"/>
<path d="M218.741,152.234L271.394,235.652L166.088,235.652L218.741,152.234Z" transform="rotate(180 218.741 207.846)" fill="#FFFAEC"/>
<defs>
<linearGradient id="pf_0_1_368" x1="309.209" y1="294.827" x2="130.712" y2="118.522" gradientUnits="userSpaceOnUse">
<stop stop-color="#7F56D9"/>
<stop offset="1" stop-color="#21B573"/>
</linearGradient>
</defs>
</svg>
