<svg width="80" height="80" viewBox="0 0 80 80" fill="none" xmlns="http://www.w3.org/2000/svg" xmlns:xlink="http://www.w3.org/1999/xlink">
<path d="M78.4,14.733L76.8,14.733L76.8,52.333C76.8,53.933 76.222,55.355 75.067,56.6C73.911,57.844 72.444,58.467 70.667,58.467L52.8,58.467L51.733,61.667L53.333,61.667C53.689,61.667 54.044,61.8 54.4,62.067C54.756,62.333 54.933,62.733 54.933,63.267L54.933,71C54.933,71.533 54.756,71.933 54.4,72.2C54.044,72.467 53.689,72.6 53.333,72.6L50.133,72.6L50.133,77.4C50.133,77.755 50,78.067 49.733,78.333C49.467,78.6 49.067,78.733 48.533,78.733L31.467,78.733C30.933,78.733 30.533,78.6 30.267,78.333C30,78.067 29.867,77.755 29.867,77.4L29.867,72.6L26.667,72.6C26.311,72.6 25.956,72.467 25.6,72.2C25.244,71.933 25.067,71.533 25.067,71L25.067,63.267C25.067,62.733 25.244,62.333 25.6,62.067C25.956,61.8 26.311,61.667 26.667,61.667L28.267,61.667L27.2,58.467L9.333,58.467C7.556,58.467 6.089,57.844 4.933,56.6C3.778,55.355 3.2,53.933 3.2,52.333L3.2,14.733L1.6,14.733C1.067,14.733 0.667,14.6 0.4,14.333C0.133,14.067 0,13.667 0,13.133L0,5.4C0,3.622 0.622,2.156 1.867,1C3.111,-0.156 4.533,-0.733 6.133,-0.733L73.867,-0.733C75.467,-0.733 76.889,-0.156 78.133,1C79.378,2.156 80,3.622 80,5.4L80,13.133C80,13.667 79.867,14.067 79.6,14.333C79.333,14.6 78.933,14.733 78.4,14.733ZM70.667,55.533C71.556,55.533 72.311,55.222 72.933,54.6C73.556,53.978 73.867,53.222 73.867,52.333L73.867,14.733L70.667,14.733L70.667,50.733C70.667,51.089 70.489,51.444 70.133,51.8C69.778,52.155 69.422,52.333 69.067,52.333L54.933,52.333L53.867,55.533L70.667,55.533ZM33.067,11.533L46.933,11.533L46.933,8.6L33.067,8.6L33.067,11.533ZM12.533,14.733L12.533,49.133L23.733,49.133L22.933,46.467C22.756,45.933 22.844,45.489 23.2,45.133L37.067,25.667L26.4,25.667C26.044,26.555 25.467,27.311 24.667,27.933C23.867,28.555 22.889,28.867 21.733,28.867C20.578,28.867 19.556,28.422 18.667,27.533C17.778,26.644 17.333,25.533 17.333,24.2C17.333,22.867 17.778,21.755 18.667,20.867C19.556,19.978 20.578,19.533 21.733,19.533C22.889,19.533 23.867,19.8 24.667,20.333C25.467,20.867 26.044,21.578 26.4,22.467L53.6,22.467C53.956,21.578 54.533,20.867 55.333,20.333C56.133,19.8 57.111,19.533 58.267,19.533C59.422,19.533 60.444,19.978 61.333,20.867C62.222,21.755 62.667,22.867 62.667,24.2C62.667,25.533 62.222,26.644 61.333,27.533C60.444,28.422 59.422,28.867 58.267,28.867C57.111,28.867 56.133,28.555 55.333,27.933C54.533,27.311 53.956,26.555 53.6,25.667L42.933,25.667L56.8,45.133C57.156,45.489 57.244,45.933 57.067,46.467L56.267,49.133L67.467,49.133L67.467,14.733L12.533,14.733ZM40,45.933C39.644,45.933 39.289,46.111 38.933,46.467C38.578,46.822 38.4,47.222 38.4,47.667C38.4,48.111 38.578,48.467 38.933,48.733C39.289,49 39.644,49.133 40,49.133C40.356,49.133 40.711,49 41.067,48.733C41.422,48.467 41.6,48.111 41.6,47.667C41.6,47.222 41.422,46.822 41.067,46.467C40.711,46.111 40.356,45.933 40,45.933ZM23.467,24.067C23.467,23.711 23.333,23.355 23.067,23C22.8,22.644 22.444,22.467 22,22.467C21.556,22.467 21.2,22.644 20.933,23C20.667,23.355 20.533,23.755 20.533,24.2C20.533,24.644 20.667,25 20.933,25.267C21.2,25.533 21.556,25.667 22,25.667C22.444,25.667 22.8,25.533 23.067,25.267C23.333,25 23.467,24.6 23.467,24.067ZM56.533,24.067C56.533,24.6 56.667,25 56.933,25.267C57.2,25.533 57.556,25.667 58,25.667C58.444,25.667 58.8,25.533 59.067,25.267C59.333,25 59.467,24.644 59.467,24.2C59.467,23.755 59.333,23.355 59.067,23C58.8,22.644 58.444,22.467 58,22.467C57.556,22.467 57.2,22.644 56.933,23C56.667,23.355 56.533,23.711 56.533,24.067ZM33.067,75.8L46.933,75.8L46.933,72.6L33.067,72.6L33.067,75.8ZM28.267,69.4L51.733,69.4L51.733,64.867L28.267,64.867L28.267,69.4ZM48.267,61.667L53.867,46.2L41.6,29.133L41.6,43.267C42.489,43.444 43.244,43.978 43.867,44.867C44.489,45.755 44.8,46.733 44.8,47.8C44.8,48.867 44.311,49.889 43.333,50.867C42.356,51.844 41.244,52.333 40,52.333C38.756,52.333 37.644,51.844 36.667,50.867C35.689,49.889 35.2,48.867 35.2,47.8C35.2,46.733 35.511,45.755 36.133,44.867C36.756,43.978 37.511,43.444 38.4,43.267L38.4,29.133L26.133,46.2L31.733,61.667L48.267,61.667ZM6.133,52.333C6.133,53.222 6.444,53.978 7.067,54.6C7.689,55.222 8.444,55.533 9.333,55.533L26.133,55.533L25.067,52.333L10.933,52.333C10.578,52.333 10.222,52.155 9.867,51.8C9.511,51.444 9.333,51.089 9.333,50.733L9.333,14.733L6.133,14.733L6.133,52.333ZM76.8,5.4C76.8,4.511 76.489,3.756 75.867,3.133C75.244,2.511 74.578,2.2 73.867,2.2L6.133,2.2C5.422,2.2 4.756,2.511 4.133,3.133C3.511,3.756 3.2,4.511 3.2,5.4L3.2,11.533L29.867,11.533L29.867,7C29.867,6.467 30,6.067 30.267,5.8C30.533,5.533 30.933,5.4 31.467,5.4L48.533,5.4C49.067,5.4 49.467,5.533 49.733,5.8C50,6.067 50.133,6.467 50.133,7L50.133,11.533L76.8,11.533L76.8,5.4Z" fill="#FFFFFF"/>
</svg>
