<svg width="80" height="72" viewBox="0 0 80 72" fill="none" xmlns="http://www.w3.org/2000/svg" xmlns:xlink="http://www.w3.org/1999/xlink">
<path d="M31.447,19C31.269,19 31.002,19.089 30.647,19.267L22.113,26.467C21.758,26.822 21.58,27.178 21.58,27.533C21.58,27.889 21.758,28.244 22.113,28.6L30.647,35.8C31.002,35.978 31.358,36.067 31.713,36.067C32.069,36.067 32.336,35.933 32.513,35.667C32.691,35.4 32.78,35.089 32.78,34.733C32.78,34.378 32.691,34.111 32.513,33.933L25.047,27.533L32.513,21.133C32.691,20.956 32.78,20.689 32.78,20.333C32.78,19.978 32.691,19.667 32.513,19.4C32.336,19.133 31.98,19 31.447,19ZM48.513,19C47.98,19 47.624,19.133 47.447,19.4C47.269,19.667 47.18,19.978 47.18,20.333C47.18,20.689 47.269,20.956 47.447,21.133L54.913,27.533L47.447,33.933C47.269,34.111 47.18,34.378 47.18,34.733C47.18,35.089 47.269,35.4 47.447,35.667C47.624,35.933 47.891,36.067 48.247,36.067C48.602,36.067 48.958,35.978 49.313,35.8L57.847,28.6C58.202,28.244 58.38,27.889 58.38,27.533C58.38,27.178 58.202,26.822 57.847,26.467L49.313,19.267C48.958,19.089 48.691,19 48.513,19ZM37.047,13.4C36.869,13.4 36.691,13.444 36.513,13.533C36.336,13.622 36.113,13.8 35.847,14.067C35.58,14.333 35.536,14.644 35.713,15L41.047,40.333C41.047,40.689 41.224,40.956 41.58,41.133C41.936,41.311 42.291,41.4 42.647,41.4C43.002,41.4 43.269,41.222 43.447,40.867C43.624,40.511 43.624,40.156 43.447,39.8L38.113,14.467C38.113,13.756 37.758,13.4 37.047,13.4ZM71.18,-0.2L8.78,-0.2C6.469,-0.2 4.424,0.644 2.647,2.333C0.869,4.022 -0.02,6.111 -0.02,8.6L-0.02,61.4C-0.02,63.889 0.869,65.978 2.647,67.667C4.424,69.356 6.469,70.2 8.78,70.2L71.18,70.2C73.491,70.2 75.536,69.356 77.313,67.667C79.091,65.978 79.98,63.889 79.98,61.4L79.98,8.6C79.98,6.111 79.091,4.022 77.313,2.333C75.536,0.644 73.491,-0.2 71.18,-0.2ZM8.78,67.533C7.18,67.533 5.758,66.956 4.513,65.8C3.269,64.644 2.647,63.178 2.647,61.4L2.647,8.6C2.647,6.822 3.269,5.356 4.513,4.2C5.758,3.044 7.18,2.467 8.78,2.467L71.18,2.467C72.78,2.467 74.202,3.044 75.447,4.2C76.691,5.356 77.313,6.822 77.313,8.6L77.313,61.4C77.313,63.178 76.691,64.644 75.447,65.8C74.202,66.956 72.78,67.533 71.18,67.533L8.78,67.533ZM78.647,49.133L1.313,49.133C0.958,49.133 0.647,49.267 0.38,49.533C0.113,49.8 -0.02,50.111 -0.02,50.467C-0.02,50.822 0.113,51.133 0.38,51.4C0.647,51.667 0.958,51.8 1.313,51.8L78.647,51.8C79.002,51.8 79.313,51.667 79.58,51.4C79.847,51.133 79.98,50.822 79.98,50.467C79.98,50.111 79.847,49.8 79.58,49.533C79.313,49.267 79.002,49.133 78.647,49.133ZM22.647,55.533C21.402,55.533 20.38,55.933 19.58,56.733C18.78,57.533 18.38,58.511 18.38,59.667C18.38,60.822 18.78,61.8 19.58,62.6C20.38,63.4 21.358,63.8 22.513,63.8C23.669,63.8 24.647,63.4 25.447,62.6C26.247,61.8 26.647,60.822 26.647,59.667C26.647,58.511 26.247,57.533 25.447,56.733C24.647,55.933 23.713,55.533 22.647,55.533ZM22.647,61.133C22.113,61.133 21.713,61 21.447,60.733C21.18,60.467 21.047,60.111 21.047,59.667C21.047,59.222 21.18,58.867 21.447,58.6C21.713,58.333 22.069,58.2 22.513,58.2C22.958,58.2 23.313,58.333 23.58,58.6C23.847,58.867 23.98,59.222 23.98,59.667C23.98,60.111 23.847,60.467 23.58,60.733C23.313,61 23.002,61.133 22.647,61.133ZM9.58,55.533C8.513,55.533 7.58,55.933 6.78,56.733C5.98,57.533 5.58,58.511 5.58,59.667C5.58,60.822 5.98,61.8 6.78,62.6C7.58,63.4 8.558,63.8 9.713,63.8C10.869,63.8 11.847,63.4 12.647,62.6C13.447,61.8 13.847,60.822 13.847,59.667C13.847,58.511 13.447,57.533 12.647,56.733C11.847,55.933 10.824,55.533 9.58,55.533ZM9.58,61.133C9.224,61.133 8.913,61 8.647,60.733C8.38,60.467 8.247,60.111 8.247,59.667C8.247,59.222 8.38,58.867 8.647,58.6C8.913,58.333 9.269,58.2 9.713,58.2C10.158,58.2 10.513,58.333 10.78,58.6C11.047,58.867 11.18,59.222 11.18,59.667C11.18,60.111 11.047,60.467 10.78,60.733C10.513,61 10.113,61.133 9.58,61.133ZM35.447,55.533C34.202,55.533 33.18,55.933 32.38,56.733C31.58,57.533 31.18,58.511 31.18,59.667C31.18,60.822 31.58,61.8 32.38,62.6C33.18,63.4 34.158,63.8 35.313,63.8C36.469,63.8 37.447,63.4 38.247,62.6C39.047,61.8 39.447,60.822 39.447,59.667C39.447,58.511 39.047,57.533 38.247,56.733C37.447,55.933 36.513,55.533 35.447,55.533ZM35.447,61.133C34.913,61.133 34.513,61 34.247,60.733C33.98,60.467 33.847,60.111 33.847,59.667C33.847,59.222 33.98,58.822 34.247,58.467C34.513,58.111 34.869,57.933 35.313,57.933C35.758,57.933 36.158,58.111 36.513,58.467C36.869,58.822 37.047,59.222 37.047,59.667C37.047,60.111 36.869,60.467 36.513,60.733C36.158,61 35.802,61.133 35.447,61.133Z" fill="#FFFFFF"/>
</svg>
