<svg width="160" height="160" viewBox="0 0 160 160" fill="none" xmlns="http://www.w3.org/2000/svg" xmlns:xlink="http://www.w3.org/1999/xlink">
<path d="M77.867,102.4C78.933,102.4 79.733,102.667 80.267,103.2C80.8,103.733 81.067,104.444 81.067,105.333C81.067,106.222 80.8,107.022 80.267,107.733C79.733,108.444 79.022,108.8 78.133,108.8C77.244,108.8 76.444,108.444 75.733,107.733C75.022,107.022 74.667,106.222 74.667,105.333C74.667,104.444 75.022,103.733 75.733,103.2C76.444,102.667 77.156,102.4 77.867,102.4ZM58.667,102.4C59.378,102.4 60.089,102.667 60.8,103.2C61.511,103.733 61.867,104.444 61.867,105.333C61.867,106.222 61.511,107.022 60.8,107.733C60.089,108.444 59.378,108.8 58.667,108.8C57.956,108.8 57.244,108.444 56.533,107.733C55.822,107.022 55.467,106.222 55.467,105.333C55.467,104.444 55.822,103.733 56.533,103.2C57.244,102.667 57.956,102.4 58.667,102.4ZM142.933,95.467C142.222,95.467 141.6,95.2 141.067,94.667C140.533,94.133 140.267,93.422 140.267,92.533C140.267,91.644 140.533,90.844 141.067,90.133C141.6,89.422 142.222,89.067 142.933,89.067C146.133,89.067 148.711,88.089 150.667,86.133C152.622,84.178 153.6,81.778 153.6,78.933L153.6,32C153.6,28.8 152.622,26.222 150.667,24.267C148.711,22.311 146.133,21.333 142.933,21.333L69.867,21.333C67.022,21.333 64.533,22.311 62.4,24.267C60.267,26.222 59.2,28.8 59.2,32L59.2,78.933C59.2,81.778 60.267,84.178 62.4,86.133C64.533,88.089 67.022,89.067 69.867,89.067L115.2,89.067C115.911,89.067 116.533,89.422 117.067,90.133C117.6,90.844 117.867,91.644 117.867,92.533C117.867,93.422 117.6,94.133 117.067,94.667C116.533,95.2 115.911,95.467 115.2,95.467L95.467,95.467C95.822,97.6 96,99.733 96,101.867L96,115.2L100.267,115.2C100.978,115.2 101.689,115.467 102.4,116C103.111,116.533 103.467,117.156 103.467,117.867L103.467,129.067C103.467,134.756 102.044,139.911 99.2,144.533C96.356,149.156 92.533,152.889 87.733,155.733C82.933,158.578 77.689,160 72,160C67.733,160 63.822,158.844 60.267,156.533C56.711,154.222 54.044,151.111 52.267,147.2C46.933,146.844 42.578,144.8 39.2,141.067C35.822,137.333 34.133,132.978 34.133,128L34.133,118.933C34.133,117.511 34.756,116.622 36,116.267C37.244,115.911 38.578,115.556 40,115.2L40,101.867C40,97.244 41.156,92.8 43.467,88.533C45.778,84.267 48.889,80.889 52.8,78.4L52.8,76.267L49.067,76.267C40.178,76.267 32,74.044 24.533,69.6C17.067,65.156 11.111,59.2 6.667,51.733C2.222,44.267 0,35.911 0,26.667L0,18.667C0,13.689 1.867,9.333 5.6,5.6C9.333,1.867 13.689,0 18.667,0L134.4,0C135.467,0 136.267,0.267 136.8,0.8C137.333,1.333 137.6,2.044 137.6,2.933C137.6,3.822 137.333,4.622 136.8,5.333C136.267,6.044 135.467,6.4 134.4,6.4L131.733,6.4C133.867,8.889 135.289,11.733 136,14.933L142.933,14.933C147.911,14.933 152,16.622 155.2,20C158.4,23.378 160,27.378 160,32L160,78.933C160,83.556 158.4,87.467 155.2,90.667C152,93.867 147.911,95.467 142.933,95.467ZM94.4,14.933L94.4,6.4L76.267,6.4L76.267,8C76.267,10.489 75.556,12.8 74.133,14.933L94.4,14.933ZM72,153.6C79.111,153.6 85.067,151.2 89.867,146.4C94.667,141.6 97.067,135.822 97.067,129.067L97.067,121.067L72,121.067C67.733,121.067 64,122.667 60.8,125.867C57.6,129.067 56,132.889 56,137.333C56,141.778 57.6,145.6 60.8,148.8C64,152 67.733,153.6 72,153.6ZM40,128C40,130.844 40.978,133.511 42.933,136C44.889,138.489 47.289,140.089 50.133,140.8L49.6,137.6C49.6,132.978 50.844,128.711 53.333,124.8C49.422,121.6 44.978,120.533 40,121.6L40,128ZM46.4,101.867L46.4,115.2C50.667,115.911 54.4,117.689 57.6,120.533C61.867,116.978 66.667,115.2 72,115.2L90.133,115.2L90.133,101.867C90.133,99.733 89.778,97.6 89.067,95.467L69.867,95.467C66.311,95.467 63.111,94.489 60.267,92.533C57.422,90.578 55.467,88.178 54.4,85.333C51.911,87.111 49.956,89.511 48.533,92.533C47.111,95.556 46.4,98.667 46.4,101.867ZM18.667,6.4C15.111,6.4 12.178,7.556 9.867,9.867C7.556,12.178 6.4,15.111 6.4,18.667L6.4,26.667C6.4,34.489 8.267,41.689 12,48.267C15.733,54.844 20.978,60.089 27.733,64C34.489,67.911 41.6,69.867 49.067,69.867L52.8,69.867L52.8,32C52.8,29.867 53.156,27.911 53.867,26.133L31.467,26.133C30.756,26.133 30.044,25.867 29.333,25.333C28.622,24.8 28.267,24.089 28.267,23.2C28.267,22.311 28.622,21.6 29.333,21.067C30.044,20.533 30.756,20.267 31.467,20.267L52.8,20.267L52.8,6.4L18.667,6.4ZM59.2,6.4L59.2,14.933L62.933,14.933C64.711,14.933 66.311,14.222 67.733,12.8C69.156,11.378 69.867,9.778 69.867,8L69.867,6.4L59.2,6.4ZM100.8,14.933L112.533,14.933L112.533,6.4L100.8,6.4L100.8,14.933ZM118.933,6.4L118.933,14.933L129.6,14.933C128.889,12.444 127.556,10.4 125.6,8.8C123.644,7.2 121.422,6.4 118.933,6.4ZM106.667,66.667C103.467,66.667 100.711,65.6 98.4,63.467C96.089,61.333 94.933,58.667 94.933,55.467C94.933,52.267 96.089,49.511 98.4,47.2C100.711,44.889 103.467,43.733 106.667,43.733C109.867,43.733 112.533,44.889 114.667,47.2C116.8,49.511 117.867,52.267 117.867,55.467C117.867,58.667 116.8,61.333 114.667,63.467C112.533,65.6 109.867,66.667 106.667,66.667ZM106.667,50.133C104.889,50.133 103.556,50.578 102.667,51.467C101.778,52.356 101.333,53.6 101.333,55.2C101.333,56.8 101.778,58.133 102.667,59.2C103.556,60.267 104.8,60.8 106.4,60.8C108,60.8 109.333,60.267 110.4,59.2C111.467,58.133 112,56.8 112,55.2C112,53.6 111.467,52.356 110.4,51.467C109.333,50.578 108.089,50.133 106.667,50.133ZM129.067,89.067C129.778,89.067 130.489,89.422 131.2,90.133C131.911,90.844 132.267,91.644 132.267,92.533C132.267,93.422 131.911,94.133 131.2,94.667C130.489,95.2 129.778,95.467 129.067,95.467C128.356,95.467 127.644,95.2 126.933,94.667C126.222,94.133 125.867,93.422 125.867,92.533C125.867,91.644 126.222,90.844 126.933,90.133C127.644,89.422 128.356,89.067 129.067,89.067Z" fill="#FFFFFF"/>
</svg>
