<svg width="50" height="50" viewBox="0 0 50 50" fill="none" xmlns="http://www.w3.org/2000/svg" xmlns:xlink="http://www.w3.org/1999/xlink">
<path d="M22.021,50C18.994,50 16.146,49.43 13.477,48.291C10.775,47.119 8.431,45.54 6.445,43.555C4.46,41.569 2.881,39.225 1.709,36.523C0.57,33.854 0,31.006 0,27.979C0,24.951 0.57,22.103 1.709,19.434C2.881,16.764 4.46,14.429 6.445,12.427C8.431,10.425 10.775,8.854 13.477,7.715C16.146,6.543 18.994,5.957 22.021,5.957C25.049,5.957 27.897,6.543 30.566,7.715C33.236,8.854 35.571,10.425 37.573,12.427C39.575,14.429 41.146,16.764 42.285,19.434C43.457,22.103 44.043,24.951 44.043,27.979C44.043,31.006 43.457,33.854 42.285,36.523C41.146,39.225 39.575,41.569 37.573,43.555C35.571,45.54 33.236,47.119 30.566,48.291C27.897,49.43 25.049,50 22.021,50ZM22.021,10.01C19.548,10.01 17.22,10.482 15.039,11.426C12.858,12.37 10.954,13.656 9.326,15.283C7.699,16.911 6.413,18.815 5.469,20.996C4.525,23.177 4.053,25.505 4.053,27.979C4.053,30.452 4.525,32.78 5.469,34.961C6.413,37.142 7.699,39.046 9.326,40.674C10.954,42.301 12.858,43.587 15.039,44.531C17.22,45.475 19.548,45.947 22.021,45.947C24.495,45.947 26.823,45.475 29.004,44.531C31.185,43.587 33.089,42.301 34.717,40.674C36.344,39.046 37.63,37.142 38.574,34.961C39.518,32.78 39.99,30.452 39.99,27.979C39.99,25.505 39.518,23.177 38.574,20.996C37.63,18.815 36.344,16.911 34.717,15.283C33.089,13.656 31.185,12.37 29.004,11.426C26.823,10.482 24.495,10.01 22.021,10.01ZM49.414,3.467L37.744,15.137C37.354,15.527 36.873,15.723 36.304,15.723C35.734,15.723 35.254,15.527 34.863,15.137C34.473,14.746 34.277,14.266 34.277,13.696C34.277,13.127 34.473,12.646 34.863,12.256L46.533,0.586C46.729,0.391 46.948,0.244 47.192,0.146C47.437,0.049 47.689,0 47.949,0C48.21,0 48.47,0.049 48.73,0.146C48.991,0.244 49.219,0.391 49.414,0.586C49.805,0.977 50,1.457 50,2.026C50,2.596 49.805,3.076 49.414,3.467Z" fill="#1B2336"/>
</svg>
