<svg width="80" height="82" viewBox="0 0 80 82" fill="none" xmlns="http://www.w3.org/2000/svg" xmlns:xlink="http://www.w3.org/1999/xlink">
<path d="M70.133,32.2C64.089,35.4 56.533,37.356 47.467,38.067L47.733,40.733C48.622,40.911 49.378,41.4 50,42.2C50.622,43 50.933,43.933 50.933,45L50.933,57.533C50.933,59.667 50.4,61.578 49.333,63.267C48.267,64.956 46.844,66.244 45.067,67.133C46.844,68.733 47.778,70.644 47.867,72.867C47.956,75.089 47.244,77 45.733,78.6C44.222,80.2 42.311,81 40,81C37.689,81 35.822,80.2 34.4,78.6C32.978,77 32.267,75.089 32.267,72.867C32.267,70.644 33.156,68.733 34.933,67.133C33.156,66.244 31.733,64.956 30.667,63.267C29.6,61.578 29.067,59.667 29.067,57.533L29.067,45C29.067,43.933 29.378,43 30,42.2C30.622,41.4 31.378,40.911 32.267,40.733L32.533,38.067C24.356,37.356 17.511,35.756 12,33.267C4.356,29.889 0.356,25.356 0,19.667C0.356,15.222 2.933,11.489 7.733,8.467C11.644,5.978 16.889,4.022 23.467,2.6C28.978,1.533 34.444,1 39.867,1C45.289,1 50.356,1.444 55.067,2.333C59.778,3.222 64,4.467 67.733,6.067C72.711,8.2 76.178,10.867 78.133,14.067C80.089,17.267 80.4,20.511 79.067,23.8C77.733,27.089 74.756,29.889 70.133,32.2ZM33.867,23.133C33.867,21.711 34.311,20.6 35.2,19.8C36.089,19 37.156,18.6 38.4,18.6L41.6,18.6C42.844,18.6 43.911,19 44.8,19.8C45.689,20.6 46.222,21.711 46.4,23.133L46.667,27.933C51.289,27.4 54.978,26.467 57.733,25.133C60.489,23.8 61.867,22.422 61.867,21C61.511,19.4 59.911,17.978 57.067,16.733C54.756,15.667 51.822,14.867 48.267,14.333C45.244,13.978 42.489,13.756 40,13.667C37.511,13.578 34.756,13.8 31.733,14.333C28.178,14.867 25.244,15.667 22.933,16.733C20.089,17.978 18.489,19.4 18.133,21C18.133,22.422 19.556,23.8 22.4,25.133C25.244,26.467 28.889,27.4 33.333,27.933L33.867,23.133ZM35.467,73.267C35.467,74.511 35.911,75.578 36.8,76.467C37.689,77.356 38.756,77.8 40,77.8C41.956,77.8 43.333,77.044 44.133,75.533C44.933,74.022 44.933,72.511 44.133,71C43.333,69.489 41.956,68.644 40,68.467C38.756,68.467 37.689,68.911 36.8,69.8C35.911,70.689 35.467,71.844 35.467,73.267ZM32.267,45L32.267,57.533C32.267,60.022 33.067,61.933 34.667,63.267C36.267,64.6 38.089,65.267 40.133,65.267C42.178,65.267 43.956,64.6 45.467,63.267C46.978,61.933 47.733,60.022 47.733,57.533L47.733,45C47.733,44.644 47.6,44.289 47.333,43.933C47.067,43.578 46.711,43.4 46.267,43.4C45.822,43.4 45.467,43.267 45.2,43C44.933,42.733 44.8,42.422 44.8,42.067L43.2,23.4C43.2,22.867 43.022,22.422 42.667,22.067C42.311,21.711 41.956,21.533 41.6,21.533L38.4,21.533C38.044,21.533 37.733,21.711 37.467,22.067C37.2,22.422 36.978,22.867 36.8,23.4L35.467,42.067C35.289,42.422 35.067,42.733 34.8,43C34.533,43.267 34.178,43.4 33.733,43.4C33.289,43.4 32.933,43.578 32.667,43.933C32.4,44.289 32.267,44.644 32.267,45ZM66.667,9C62.044,6.867 56.444,5.444 49.867,4.733C43.289,4.022 36.711,4.022 30.133,4.733C23.556,5.444 18.044,6.867 13.6,9C10.222,10.422 7.644,12.067 5.867,13.933C4.089,15.8 3.2,17.711 3.2,19.667C3.556,24.289 7.289,28.022 14.4,30.867C19.733,33 25.867,34.422 32.8,35.133L33.067,31.133C28.267,30.422 24.311,29.311 21.2,27.8C18.089,26.289 16.178,24.6 15.467,22.733C14.756,20.867 15.111,19.089 16.533,17.4C17.956,15.711 20.089,14.333 22.933,13.267C27.378,11.489 33.067,10.6 40,10.6C46.933,10.6 52.622,11.489 57.067,13.267C60.089,14.333 62.267,15.711 63.6,17.4C64.933,19.089 65.289,20.867 64.667,22.733C64.044,24.6 62.178,26.289 59.067,27.8C55.956,29.311 51.911,30.422 46.933,31.133L47.2,35.133C55.911,34.244 63.111,32.378 68.8,29.533C72.711,27.4 75.2,25.089 76.267,22.6C77.333,20.111 77.022,17.667 75.333,15.267C73.644,12.867 70.756,10.778 66.667,9Z" fill="#FFFFFF"/>
</svg>
