<svg width="160" height="144" viewBox="0 0 160 144" fill="none" xmlns="http://www.w3.org/2000/svg" xmlns:xlink="http://www.w3.org/1999/xlink">
<path d="M156.8,29.333L153.6,29.333L153.6,107.733C153.6,112.355 152.089,116.178 149.067,119.2C146.044,122.222 142.4,123.733 138.133,123.733L128.533,123.733L128.533,131.2C128.533,134.755 127.378,137.689 125.067,140C122.756,142.311 120,143.467 116.8,143.467L77.333,143.467C73.778,143.467 70.844,142.311 68.533,140C66.222,137.689 65.067,134.755 65.067,131.2L65.067,123.733L21.867,123.733C17.6,123.733 13.956,122.222 10.933,119.2C7.911,116.178 6.4,112.355 6.4,107.733L6.4,29.333L3.2,29.333C2.133,29.333 1.333,28.978 0.8,28.267C0.267,27.555 0,26.844 0,26.133C0,19.022 2.489,12.978 7.467,8C12.444,3.022 18.489,0.533 25.6,0.533L66.133,0.533C66.844,0.533 67.467,0.8 68,1.333C68.533,1.867 68.8,2.578 68.8,3.467C68.8,4.355 68.533,5.155 68,5.867C67.467,6.578 66.844,6.933 66.133,6.933L25.6,6.933C20.978,6.933 16.8,8.444 13.067,11.467C9.333,14.489 7.111,18.311 6.4,22.933L153.6,22.933C152.889,18.311 150.667,14.489 146.933,11.467C143.2,8.444 139.022,6.933 134.4,6.933L93.867,6.933C93.156,6.933 92.533,6.578 92,5.867C91.467,5.155 91.2,4.355 91.2,3.467C91.2,2.578 91.467,1.867 92,1.333C92.533,0.8 93.156,0.533 93.867,0.533L134.4,0.533C141.511,0.533 147.556,3.022 152.533,8C157.511,12.978 160,19.022 160,26.133C160,26.844 159.733,27.555 159.2,28.267C158.667,28.978 157.867,29.333 156.8,29.333ZM71.467,131.2C71.467,132.978 72,134.4 73.067,135.467C74.133,136.533 75.556,137.067 77.333,137.067L116.8,137.067C118.222,137.067 119.556,136.533 120.8,135.467C122.044,134.4 122.667,132.978 122.667,131.2L122.667,102.4C122.667,100.978 122.044,99.644 120.8,98.4C119.556,97.155 118.222,96.533 116.8,96.533L87.467,96.533C86.4,96.533 85.689,96.355 85.333,96L80,91.2L80,93.867C80,94.578 79.733,95.2 79.2,95.733C78.667,96.267 77.778,96.533 76.533,96.533C75.289,96.533 74.133,97.155 73.067,98.4C72,99.644 71.467,100.978 71.467,102.4L71.467,131.2ZM12.267,107.733C12.267,110.578 13.244,112.889 15.2,114.667C17.156,116.444 19.378,117.333 21.867,117.333L65.067,117.333L65.067,110.933L21.867,110.933C21.156,110.933 20.444,110.667 19.733,110.133C19.022,109.6 18.667,108.8 18.667,107.733L18.667,29.333L12.267,29.333L12.267,107.733ZM37.867,29.333L37.867,30.933C37.867,35.555 39.467,39.555 42.667,42.933C45.867,46.311 49.778,48 54.4,48L56,48L56,42.133C56,41.067 56.267,40.267 56.8,39.733C57.333,39.2 58.044,38.933 58.933,38.933C59.822,38.933 60.533,39.2 61.067,39.733C61.6,40.267 61.867,41.067 61.867,42.133L61.867,48L63.467,48C68.089,48 72,46.311 75.2,42.933C78.4,39.555 80,35.555 80,30.933L80,29.333L37.867,29.333ZM67.2,62.4C67.2,60.267 66.4,58.4 64.8,56.8C63.2,55.2 61.244,54.4 58.933,54.4C56.622,54.4 54.667,55.2 53.067,56.8C51.467,58.4 50.667,60.267 50.667,62.4L50.667,64.533C50.667,66.667 51.467,68.533 53.067,70.133C54.667,71.733 56.622,72.533 58.933,72.533C61.244,72.533 63.2,71.733 64.8,70.133C66.4,68.533 67.2,66.667 67.2,64.533L67.2,62.4ZM86.4,29.333L86.4,30.933C86.4,36.267 84.889,40.978 81.867,45.067C78.844,49.155 74.844,51.911 69.867,53.333C72,55.822 73.067,58.844 73.067,62.4L73.067,64.533C73.067,68.444 71.733,71.822 69.067,74.667C66.4,77.511 63.022,78.933 58.933,78.933C54.844,78.933 51.467,77.511 48.8,74.667C46.133,71.822 44.8,68.444 44.8,64.533L44.8,62.4C44.8,58.844 45.867,55.822 48,53.333C43.022,51.911 39.022,49.155 36,45.067C32.978,40.978 31.467,36.267 31.467,30.933L31.467,29.333L25.067,29.333L25.067,105.067L65.067,105.067L65.067,102.4C65.067,99.911 65.867,97.511 67.467,95.2C69.067,92.889 71.289,91.378 74.133,90.667L74.133,83.2C74.133,82.133 74.667,81.244 75.733,80.533L77.333,80.533C78.044,80.533 78.756,80.711 79.467,81.067L88.533,90.667L116.8,90.667C120,90.667 122.756,91.822 125.067,94.133C127.378,96.444 128.533,99.2 128.533,102.4L128.533,105.067L134.933,105.067L134.933,29.333L86.4,29.333ZM141.333,29.333L141.333,107.733C141.333,108.8 140.978,109.6 140.267,110.133C139.556,110.667 138.844,110.933 138.133,110.933L128.533,110.933L128.533,117.333L138.133,117.333C140.622,117.333 142.844,116.444 144.8,114.667C146.756,112.889 147.733,110.578 147.733,107.733L147.733,29.333L141.333,29.333ZM86.933,18.133L73.067,18.133C72.356,18.133 71.644,17.778 70.933,17.067C70.222,16.355 69.867,15.555 69.867,14.667C69.867,13.778 70.222,13.067 70.933,12.533C71.644,12 72.356,11.733 73.067,11.733L86.933,11.733C88,11.733 88.8,12 89.333,12.533C89.867,13.067 90.133,13.778 90.133,14.667C90.133,15.555 89.867,16.355 89.333,17.067C88.8,17.778 88,18.133 86.933,18.133ZM89.6,105.067C90.667,104.355 91.733,104 92.8,104C93.867,104 94.756,104.355 95.467,105.067L107.2,112C109.333,113.067 110.4,114.755 110.4,117.067C110.4,119.378 109.333,121.067 107.2,122.133L95.467,129.067C93.689,130.133 91.733,130.133 89.6,129.067C87.467,128 86.4,126.222 86.4,123.733L86.4,110.4C86.4,107.911 87.467,106.133 89.6,105.067ZM92.8,123.2L104,116.8L92.8,110.933L92.8,123.2ZM80,6.933C79.289,6.933 78.578,6.578 77.867,5.867C77.156,5.155 76.8,4.355 76.8,3.467C76.8,2.578 77.156,1.867 77.867,1.333C78.578,0.8 79.289,0.533 80,0.533C80.711,0.533 81.422,0.8 82.133,1.333C82.844,1.867 83.2,2.578 83.2,3.467C83.2,4.355 82.844,5.155 82.133,5.867C81.422,6.578 80.711,6.933 80,6.933Z" fill="#FFFFFF"/>
</svg>
