<svg width="72" height="82" viewBox="0 0 72 82" fill="none" xmlns="http://www.w3.org/2000/svg" xmlns:xlink="http://www.w3.org/1999/xlink">
<path d="M35.713,23.933C35.358,23.933 35.002,23.756 34.647,23.4C34.291,23.044 34.113,22.644 34.113,22.2C34.113,21.756 34.291,21.4 34.647,21.133C35.002,20.867 35.358,20.733 35.713,20.733C36.069,20.733 36.424,20.867 36.78,21.133C37.136,21.4 37.313,21.756 37.313,22.2C37.313,22.644 37.136,23.044 36.78,23.4C36.424,23.756 36.069,23.933 35.713,23.933ZM63.713,69.267L31.98,69.267L22.113,79.133C20.869,80.378 19.402,81 17.713,81C16.024,81 14.602,80.422 13.447,79.267C12.291,78.111 11.713,76.689 11.713,75C11.713,73.311 12.247,71.844 13.313,70.6L14.913,69.267L7.713,69.267C5.58,69.267 3.758,68.467 2.247,66.867C0.736,65.267 -0.02,63.4 -0.02,61.267L-0.02,51.133C-0.02,50.6 0.113,50.2 0.38,49.933C0.647,49.667 1.002,49.533 1.447,49.533C1.891,49.533 2.291,49.667 2.647,49.933C3.002,50.2 3.18,50.6 3.18,51.133L3.18,61.267C3.18,62.689 3.624,63.844 4.513,64.733C5.402,65.622 6.469,66.067 7.713,66.067L18.113,66.067L37.847,46.333L37.58,44.733C37.58,41.889 38.558,39.489 40.513,37.533C42.291,35.756 44.202,34.511 46.247,33.8C48.291,33.089 50.824,32.733 53.847,32.733C55.269,32.733 56.78,32.822 58.38,33C59.091,33 59.536,33.311 59.713,33.933C59.891,34.556 59.802,35.133 59.447,35.667C58.558,36.556 58.024,37.533 57.847,38.6C57.669,39.311 57.669,40.556 57.847,42.333C58.024,44.289 58.024,45.889 57.847,47.133C57.491,48.911 56.647,50.467 55.313,51.8C53.98,53.133 52.558,54.067 51.047,54.6C49.536,55.133 47.891,55.222 46.113,54.867L35.18,66.067L63.713,66.067C64.958,66.067 66.069,65.622 67.047,64.733C68.024,63.844 68.513,62.689 68.513,61.267L68.513,29.267L3.18,29.267L3.18,37C3.18,37.356 3.002,37.711 2.647,38.067C2.291,38.422 1.891,38.6 1.447,38.6C1.002,38.6 0.647,38.422 0.38,38.067C0.113,37.711 -0.02,37.356 -0.02,37L-0.02,23.133C-0.02,21 0.736,19.178 2.247,17.667C3.758,16.156 5.58,15.4 7.713,15.4L27.98,15.4L27.98,10.333C25.847,10.333 24.024,9.578 22.513,8.067C21.002,6.556 20.247,4.733 20.247,2.6C20.247,2.067 20.38,1.667 20.647,1.4C20.913,1.133 21.313,1 21.847,1L49.58,1C50.113,1 50.513,1.133 50.78,1.4C51.047,1.667 51.18,2.067 51.18,2.6C51.18,4.733 50.424,6.556 48.913,8.067C47.402,9.578 45.58,10.333 43.447,10.333L43.447,15.4L63.713,15.4C65.847,15.4 67.669,16.156 69.18,17.667C70.691,19.178 71.447,21 71.447,23.133L71.447,61.267C71.447,63.4 70.691,65.267 69.18,66.867C67.669,68.467 65.847,69.267 63.713,69.267ZM15.713,77C16.247,77.533 16.913,77.8 17.713,77.8C18.513,77.8 19.18,77.533 19.713,77L35.447,61.267L31.447,57L15.713,72.733C15.002,73.444 14.647,74.2 14.647,75C14.647,75.8 15.002,76.467 15.713,77ZM42.913,39.667C43.447,40.556 44.158,41.311 45.047,41.933C45.936,42.556 47.002,42.956 48.247,43.133C50.913,43.311 53.136,44.378 54.913,46.333C54.913,45.622 54.824,44.378 54.647,42.6C54.647,41.178 54.647,40.022 54.647,39.133C54.647,37.889 54.913,36.733 55.447,35.667C52.602,35.667 50.158,35.978 48.113,36.6C46.069,37.222 44.336,38.244 42.913,39.667ZM53.047,49.8C53.047,49.8 53.136,49.711 53.313,49.533C52.78,48.644 52.024,47.889 51.047,47.267C50.069,46.644 49.047,46.244 47.98,46.067C45.136,46.067 42.824,44.911 41.047,42.6C40.869,43.311 40.78,44.022 40.78,44.733C40.78,46.689 41.491,48.378 42.913,49.8C44.336,51.222 46.024,51.933 47.98,51.933C49.936,51.933 51.624,51.222 53.047,49.8ZM40.513,52.2L38.38,50.067L33.58,54.867L37.847,59.133L42.647,54.067L40.513,52.2ZM47.713,4.2L23.713,4.2C24.069,5.089 24.647,5.8 25.447,6.333C26.247,6.867 27.091,7.133 27.98,7.133L43.447,7.133C44.336,7.133 45.224,6.867 46.113,6.333C47.002,5.8 47.536,5.089 47.713,4.2ZM40.513,10.333L30.913,10.333L30.913,15.4L40.513,15.4L40.513,10.333ZM63.713,18.6L7.713,18.6C6.469,18.6 5.402,19.044 4.513,19.933C3.624,20.822 3.18,21.889 3.18,23.133L3.18,26.067L68.513,26.067L68.513,23.133C68.513,21.889 68.024,20.822 67.047,19.933C66.069,19.044 64.958,18.6 63.713,18.6ZM1.58,42.333C1.936,42.333 2.291,42.511 2.647,42.867C3.002,43.222 3.18,43.622 3.18,44.067C3.18,44.511 3.002,44.867 2.647,45.133C2.291,45.4 1.891,45.533 1.447,45.533C1.002,45.533 0.647,45.4 0.38,45.133C0.113,44.867 -0.02,44.511 -0.02,44.067C-0.02,43.622 0.113,43.222 0.38,42.867C0.647,42.511 1.047,42.333 1.58,42.333Z" fill="#FFFFFF"/>
</svg>
