<svg width="44" height="30" viewBox="0 0 44 30" fill="none" xmlns="http://www.w3.org/2000/svg" xmlns:xlink="http://www.w3.org/1999/xlink">
<path d="M41.5,0.667L0.333,0.667L0.333,5L5.317,5L12.423,24.5C12.87,25.764 13.697,26.859 14.791,27.635C15.885,28.411 17.192,28.83 18.533,28.833L37.167,28.833L37.167,24.5L18.533,24.5C18.088,24.5 17.654,24.362 17.289,24.107C16.925,23.851 16.648,23.489 16.497,23.07L15.5,20.167L35.607,20.167C36.547,20.165 37.461,19.858 38.212,19.291C38.962,18.725 39.508,17.929 39.767,17.025L43.667,3.418C43.755,3.134 43.783,2.834 43.75,2.538C43.717,2.242 43.624,1.956 43.475,1.698C43.327,1.44 43.127,1.215 42.887,1.037C42.648,0.86 42.375,0.734 42.085,0.667C41.891,0.635 41.694,0.635 41.5,0.667ZM35.542,15.833L13.875,15.833L9.932,5L38.618,5L35.542,15.833Z" fill="#5E6775"/>
</svg>
