<svg width="48" height="38" viewBox="0 0 48 38" fill="none" xmlns="http://www.w3.org/2000/svg" xmlns:xlink="http://www.w3.org/1999/xlink">
<path d="M46.078,29.219L40.828,29.219L40.828,32.031C40.828,33.594 40.281,34.922 39.188,36.016C38.094,37.109 36.766,37.656 35.203,37.656L29.578,37.656C29.047,37.656 28.602,37.477 28.242,37.117C27.883,36.758 27.703,36.312 27.703,35.781C27.703,35.25 27.883,34.805 28.242,34.445C28.602,34.086 29.047,33.906 29.578,33.906L35.203,33.906C35.734,33.906 36.18,33.727 36.539,33.367C36.899,33.008 37.078,32.562 37.078,32.031L37.078,29.219L10.828,29.219L10.828,32.031C10.828,32.562 11.008,33.008 11.367,33.367C11.727,33.727 12.172,33.906 12.703,33.906L18.328,33.906C18.859,33.906 19.305,34.086 19.664,34.445C20.024,34.805 20.203,35.25 20.203,35.781C20.203,36.312 20.024,36.758 19.664,37.117C19.305,37.477 18.859,37.656 18.328,37.656L12.703,37.656C11.141,37.656 9.813,37.109 8.719,36.016C7.625,34.922 7.078,33.594 7.078,32.031L7.078,29.219L1.828,29.219C1.234,29.219 0.75,28.984 0.375,28.516C0,28.047 -0.125,27.516 0,26.922L5.719,1.984C5.813,1.547 6.031,1.195 6.375,0.93C6.719,0.664 7.109,0.531 7.547,0.531L40.359,0.531C40.797,0.531 41.188,0.664 41.531,0.93C41.875,1.195 42.094,1.547 42.188,1.984L47.906,26.922C48.031,27.516 47.906,28.047 47.531,28.516C47.156,28.984 46.672,29.219 46.078,29.219ZM38.859,4.281L9.047,4.281L4.172,25.469L43.734,25.469L38.859,4.281ZM21.141,19.562L21.141,10.187C21.141,9.656 20.961,9.211 20.602,8.852C20.242,8.492 19.797,8.312 19.266,8.312C18.734,8.312 18.289,8.492 17.93,8.852C17.57,9.211 17.391,9.656 17.391,10.187L17.391,19.562C17.391,20.094 17.57,20.539 17.93,20.898C18.289,21.258 18.734,21.437 19.266,21.437C19.797,21.437 20.242,21.258 20.602,20.898C20.961,20.539 21.141,20.094 21.141,19.562ZM30.516,19.562L30.516,10.187C30.516,9.656 30.336,9.211 29.977,8.852C29.617,8.492 29.172,8.312 28.641,8.312C28.109,8.312 27.664,8.492 27.305,8.852C26.945,9.211 26.766,9.656 26.766,10.187L26.766,19.562C26.766,20.094 26.945,20.539 27.305,20.898C27.664,21.258 28.109,21.437 28.641,21.437C29.172,21.437 29.617,21.258 29.977,20.898C30.336,20.539 30.516,20.094 30.516,19.562Z" fill="#1B2336"/>
</svg>
