<svg width="80" height="70" viewBox="0 0 80 70" fill="none" xmlns="http://www.w3.org/2000/svg" xmlns:xlink="http://www.w3.org/1999/xlink">
<path d="M75.2,69.293L46.4,69.293C45.156,69.293 44.044,68.849 43.067,67.96C42.089,67.071 41.6,65.916 41.6,64.493L41.6,47.16L22.933,42.093L5.333,42.093C3.911,42.093 2.667,41.56 1.6,40.493C0.533,39.427 0,38.182 0,36.76L0,25.56C0,24.138 0.533,22.938 1.6,21.96C2.667,20.982 3.911,20.493 5.333,20.493L7.733,20.493L9.6,5.027C9.956,3.071 11.022,1.738 12.8,1.027C13.689,0.671 14.667,0.538 15.733,0.627C16.8,0.716 17.689,1.027 18.4,1.56C20,2.804 20.622,4.493 20.267,6.627L18.4,20.493L22.933,20.493L62.133,9.293C62.667,9.293 63.156,9.427 63.6,9.693C64.044,9.96 64.267,10.36 64.267,10.893L64.267,41.027L75.2,41.027C76.622,41.027 77.778,41.516 78.667,42.493C79.556,43.471 80,44.582 80,45.827L80,64.493C80,65.916 79.556,67.071 78.667,67.96C77.778,68.849 76.622,69.293 75.2,69.293ZM3.2,25.56L3.2,36.76C3.2,37.293 3.378,37.782 3.733,38.227C4.089,38.671 4.622,38.893 5.333,38.893L21.6,38.893L21.6,23.427L5.333,23.427C4.622,23.427 4.089,23.649 3.733,24.093C3.378,24.538 3.2,25.027 3.2,25.56ZM17.333,6.093C17.333,5.204 17.022,4.538 16.4,4.093C15.778,3.649 15.022,3.56 14.133,3.827C13.244,4.093 12.8,4.671 12.8,5.56L10.933,20.493L15.467,20.493L17.333,6.093ZM61.067,13.027L24.8,23.16L24.8,39.16L42.133,44.227C42.489,43.338 43.067,42.582 43.867,41.96C44.667,41.338 45.511,41.027 46.4,41.027L50.4,41.027L53.067,38.36C53.422,38.182 53.822,38.093 54.267,38.093C54.711,38.093 55.022,38.182 55.2,38.36L57.867,41.027L61.067,41.027L61.067,13.027ZM76.8,45.827C76.8,45.471 76.667,45.116 76.4,44.76C76.133,44.404 75.733,44.227 75.2,44.227L57.333,44.227C56.978,44.227 56.622,44.049 56.267,43.693L54.133,41.827L52.267,43.693C51.911,44.049 51.556,44.227 51.2,44.227L46.4,44.227C46.044,44.227 45.689,44.404 45.333,44.76C44.978,45.116 44.8,45.471 44.8,45.827L44.8,64.493C44.8,65.027 44.978,65.427 45.333,65.693C45.689,65.96 46.044,66.093 46.4,66.093L75.2,66.093C75.733,66.093 76.133,65.96 76.4,65.693C76.667,65.427 76.8,65.027 76.8,64.493L76.8,45.827ZM70.133,62.893L51.467,62.893C50.756,62.893 50.267,62.671 50,62.227C49.733,61.782 49.733,61.293 50,60.76C50.267,60.227 50.756,59.96 51.467,59.96L70.133,59.96C70.844,59.96 71.333,60.227 71.6,60.76C71.867,61.293 71.867,61.782 71.6,62.227C71.333,62.671 70.844,62.893 70.133,62.893ZM70.133,56.76L51.467,56.76C50.756,56.76 50.267,56.493 50,55.96C49.733,55.427 49.733,54.893 50,54.36C50.267,53.827 50.756,53.56 51.467,53.56L70.133,53.56C70.844,53.56 71.333,53.827 71.6,54.36C71.867,54.893 71.867,55.427 71.6,55.96C71.333,56.493 70.844,56.76 70.133,56.76ZM60.8,50.627L51.467,50.627C50.756,50.449 50.267,50.138 50,49.693C49.733,49.249 49.733,48.76 50,48.227C50.267,47.693 50.756,47.427 51.467,47.427L60.8,47.427C61.511,47.427 62,47.693 62.267,48.227C62.533,48.76 62.533,49.249 62.267,49.693C62,50.138 61.511,50.449 60.8,50.627Z" fill="#FFFFFF"/>
</svg>
