<svg width="160" height="150" viewBox="0 0 160 150" fill="none" xmlns="http://www.w3.org/2000/svg" xmlns:xlink="http://www.w3.org/1999/xlink">
<path d="M46.933,125.2C46.578,125.911 45.956,126.356 45.067,126.533C44.178,126.711 43.378,126.622 42.667,126.267C41.956,125.556 41.422,124.845 41.067,124.133C40.711,123.422 40.8,122.622 41.333,121.733C41.867,120.845 42.578,120.4 43.467,120.4C44.356,120.4 45.156,120.578 45.867,120.933C46.578,121.289 47.022,121.911 47.2,122.8C47.378,123.689 47.289,124.489 46.933,125.2ZM158.4,100.667L81.6,148.133C80.533,148.845 79.467,148.845 78.4,148.133L52.8,132.133C51.733,131.778 51.111,131.156 50.933,130.267C50.756,129.378 50.933,128.578 51.467,127.867C52,127.156 52.711,126.711 53.6,126.533C54.489,126.356 55.289,126.445 56,126.8L80,141.733L150.933,98L80,54.267L41.6,77.733L74.133,96.933C75.911,95.511 77.956,94.8 80.267,94.8C82.578,94.8 84.711,95.778 86.667,97.733C88.622,99.689 89.6,101.911 89.6,104.4C89.6,106.889 88.622,109.022 86.667,110.8C84.711,112.578 82.489,113.467 80,113.467C77.511,113.467 75.289,112.578 73.333,110.8C71.378,109.022 70.4,106.889 70.4,104.4L70.933,102.267L35.733,81.467L9.067,98L33.6,113.467C34.311,113.822 34.756,114.445 34.933,115.333C35.111,116.222 35.022,117.022 34.667,117.733C34.311,118.445 33.689,118.889 32.8,119.067C31.911,119.245 31.111,119.156 30.4,118.8L1.6,100.667C0.533,99.956 0,99.067 0,98C0,96.933 0.533,96.045 1.6,95.333L29.867,78.267L26.133,76.133C23.289,74.356 21.067,72.045 19.467,69.2C17.867,66.356 17.067,63.333 17.067,60.133L17.067,54.8C15.289,54.089 13.778,53.022 12.533,51.6C11.289,50.178 10.667,48.4 10.667,46.267L10.667,40.933C8.178,38.445 6.933,35.245 6.933,31.333L6.933,2.533C6.933,1.467 7.2,0.667 7.733,0.133C8.267,-0.4 9.067,-0.667 10.133,-0.667L29.867,-0.667C30.933,-0.667 31.733,-0.4 32.267,0.133C32.8,0.667 33.067,1.467 33.067,2.533L33.067,31.333C33.067,35.245 31.822,38.445 29.333,40.933L29.333,46.267C29.333,48.4 28.711,50.178 27.467,51.6C26.222,53.022 24.711,54.089 22.933,54.8L22.933,60.133C22.933,62.267 23.467,64.222 24.533,66C25.6,67.778 27.2,69.2 29.333,70.267L33.067,72.933L33.067,42.533C33.067,41.822 33.422,41.111 34.133,40.4C34.844,39.689 35.556,39.333 36.267,39.333C44.089,39.333 51.556,37.822 58.667,34.8C65.778,31.778 72.178,27.422 77.867,21.733C78.578,21.378 79.289,21.2 80,21.2C80.711,21.2 81.422,21.378 82.133,21.733C87.822,27.422 94.222,31.778 101.333,34.8C108.444,37.822 115.911,39.333 123.733,39.333C124.444,39.333 125.156,39.689 125.867,40.4C126.578,41.111 126.933,41.822 126.933,42.533L126.933,47.867C126.933,48.933 126.578,49.733 125.867,50.267C125.156,50.8 124.444,51.067 123.733,51.067C123.022,51.067 122.311,50.8 121.6,50.267C120.889,49.733 120.533,48.933 120.533,47.867L120.533,45.733C106.667,45.022 94.222,40.222 83.2,31.333L83.2,37.733C83.2,38.445 82.844,39.156 82.133,39.867C81.422,40.578 80.711,40.933 80,40.933C79.289,40.933 78.578,40.578 77.867,39.867C77.156,39.156 76.8,38.445 76.8,37.733L76.8,31.333C65.778,40.222 53.333,45.022 39.467,45.733L39.467,71.867L78.4,47.867C78.756,47.511 79.289,47.333 80,47.333C80.711,47.333 81.244,47.511 81.6,47.867L120.533,71.867L120.533,68.667C120.533,67.6 120.889,66.8 121.6,66.267C122.311,65.733 123.022,65.467 123.733,65.467C124.444,65.467 125.156,65.733 125.867,66.267C126.578,66.8 126.933,67.6 126.933,68.667L126.933,75.6L158.4,95.333C159.467,96.045 160,96.933 160,98C160,99.067 159.467,99.956 158.4,100.667ZM80,107.6C80.711,107.6 81.422,107.245 82.133,106.533C82.844,105.822 83.2,105.022 83.2,104.133C83.2,103.245 82.844,102.533 82.133,102C81.422,101.467 80.711,101.2 80,101.2C79.289,101.2 78.578,101.467 77.867,102C77.156,102.533 76.8,103.245 76.8,104.133C76.8,105.022 77.156,105.822 77.867,106.533C78.578,107.245 79.289,107.6 80,107.6ZM17.067,46.267C17.067,46.978 17.333,47.689 17.867,48.4C18.4,49.111 19.111,49.467 20,49.467C20.889,49.467 21.6,49.111 22.133,48.4C22.667,47.689 22.933,46.978 22.933,46.267L22.933,44.667L17.067,44.667L17.067,46.267ZM26.667,31.333L26.667,5.733L13.333,5.733L13.333,31.333C13.333,33.467 13.956,35.156 15.2,36.4C16.444,37.645 18.044,38.267 20,38.267C21.956,38.267 23.556,37.645 24.8,36.4C26.044,35.156 26.667,33.467 26.667,31.333ZM125.867,61.2C125.156,61.911 124.444,62.267 123.733,62.267C123.022,62.267 122.311,61.911 121.6,61.2C120.889,60.489 120.533,59.689 120.533,58.8C120.533,57.911 120.889,57.2 121.6,56.667C122.311,56.133 123.022,55.867 123.733,55.867C124.444,55.867 125.156,56.133 125.867,56.667C126.578,57.2 126.933,57.911 126.933,58.8C126.933,59.689 126.578,60.489 125.867,61.2Z" fill="#FFFFFF"/>
</svg>
