<svg width="34" height="34" viewBox="0 0 34 34" fill="none" xmlns="http://www.w3.org/2000/svg" xmlns:xlink="http://www.w3.org/1999/xlink">
<path d="M32.855,2.618L28.189,7.418C29.966,9.551 31.077,11.951 31.522,14.618C31.966,17.285 31.744,19.907 30.855,22.485C29.966,25.062 28.5,27.285 26.455,29.151C24.411,31.018 22.055,32.24 19.389,32.818C16.722,33.396 14.077,33.329 11.455,32.618C8.833,31.907 6.544,30.574 4.588,28.618C2.633,26.662 1.3,24.374 0.589,21.751C-0.123,19.129 -0.189,16.485 0.389,13.818C0.966,11.151 2.189,8.796 4.055,6.751C5.922,4.707 8.144,3.24 10.722,2.351C13.3,1.462 15.922,1.24 18.588,1.685C21.255,2.129 23.655,3.24 25.789,5.018L30.589,0.351C30.855,-0.004 31.233,-0.182 31.722,-0.182C32.211,-0.182 32.611,-0.026 32.922,0.285C33.233,0.596 33.389,0.996 33.389,1.485C33.389,1.974 33.211,2.351 32.855,2.618ZM3.389,17.285C3.389,19.596 3.944,21.707 5.055,23.618C6.166,25.529 7.677,27.04 9.588,28.151C11.5,29.262 13.588,29.818 15.855,29.818C18.122,29.818 20.211,29.262 22.122,28.151C24.033,27.04 25.566,25.529 26.722,23.618C27.877,21.707 28.455,19.618 28.455,17.351C28.455,15.085 27.877,12.996 26.722,11.085C25.566,9.174 24.033,7.662 22.122,6.551C20.211,5.44 18.122,4.885 15.855,4.885C13.588,4.885 11.5,5.44 9.588,6.551C7.677,7.662 6.166,9.174 5.055,11.085C3.944,12.996 3.389,15.062 3.389,17.285Z" fill="#FFFFFF"/>
</svg>
