<svg width="80" height="82" viewBox="0 0 80 82" fill="none" xmlns="http://www.w3.org/2000/svg" xmlns:xlink="http://www.w3.org/1999/xlink">
<path d="M39.98,41C39.802,41 39.624,41 39.447,41L7.713,52.733C7.002,53.089 6.647,53.622 6.647,54.333C6.647,55.044 7.002,55.578 7.713,55.933L29.313,63.933C29.847,64.111 30.291,64.067 30.647,63.8C31.002,63.533 31.269,63.222 31.447,62.867C31.624,62.511 31.624,62.111 31.447,61.667C31.269,61.222 31.002,60.911 30.647,60.733L13.047,54.333L39.98,44.467L66.913,54.333L49.313,60.733C48.958,60.911 48.691,61.222 48.513,61.667C48.336,62.111 48.336,62.511 48.513,62.867C48.691,63.222 48.958,63.533 49.313,63.8C49.669,64.067 50.113,64.111 50.647,63.933L72.247,55.933C72.958,55.578 73.313,55.044 73.313,54.333C73.313,53.622 72.958,53.089 72.247,52.733L40.513,41L39.98,41ZM39.98,1C39.802,1 39.624,1 39.447,1L21.58,7.667C21.224,7.844 20.958,8.111 20.78,8.467C20.602,8.822 20.602,9.222 20.78,9.667C20.958,10.111 21.224,10.422 21.58,10.6C21.936,10.778 22.38,10.867 22.913,10.867L39.98,4.467L57.047,10.867C57.58,10.867 58.024,10.778 58.38,10.6C58.736,10.422 59.002,10.111 59.18,9.667C59.358,9.222 59.358,8.822 59.18,8.467C59.002,8.111 58.736,7.844 58.38,7.667L40.513,1L39.98,1ZM8.247,21.8C7.891,21.8 7.536,21.978 7.18,22.333C6.824,22.689 6.647,23.044 6.647,23.4L6.647,54.333C6.647,54.867 6.824,55.267 7.18,55.533C7.536,55.8 7.936,55.933 8.38,55.933C8.824,55.933 9.224,55.8 9.58,55.533C9.936,55.267 10.113,54.867 10.113,54.333L10.113,23.4C10.113,23.044 9.936,22.689 9.58,22.333C9.224,21.978 8.78,21.8 8.247,21.8ZM71.713,21.8C71.18,21.8 70.736,21.978 70.38,22.333C70.024,22.689 69.847,23.044 69.847,23.4L69.847,54.333C69.847,54.867 70.024,55.267 70.38,55.533C70.736,55.8 71.136,55.933 71.58,55.933C72.024,55.933 72.424,55.8 72.78,55.533C73.136,55.267 73.313,54.867 73.313,54.333L73.313,23.4C73.313,23.044 73.136,22.689 72.78,22.333C72.424,21.978 72.069,21.8 71.713,21.8ZM39.98,54.333C39.447,54.333 39.047,54.511 38.78,54.867C38.513,55.222 38.38,55.578 38.38,55.933L38.38,69.267C38.38,69.8 38.513,70.244 38.78,70.6C39.047,70.956 39.447,71.089 39.98,71C40.513,70.911 40.913,70.733 41.18,70.467C41.447,70.2 41.58,69.8 41.58,69.267L41.58,55.933C41.58,55.578 41.447,55.222 41.18,54.867C40.913,54.511 40.513,54.333 39.98,54.333ZM69.847,9.533C69.313,9.533 68.869,9.711 68.513,10.067L60.513,18.067C60.158,18.422 59.98,18.822 59.98,19.267C59.98,19.711 60.158,20.111 60.513,20.467C60.869,20.822 61.269,21 61.713,21C62.158,21 62.558,20.822 62.913,20.467L70.913,12.467C71.269,12.111 71.447,11.711 71.447,11.267C71.447,10.822 71.269,10.422 70.913,10.067C70.558,9.711 70.202,9.533 69.847,9.533ZM10.113,9.533C9.758,9.533 9.402,9.711 9.047,10.067C8.691,10.422 8.513,10.822 8.513,11.267C8.513,11.711 8.691,12.111 9.047,12.467L17.047,20.467C17.402,20.822 17.802,21 18.247,21C18.691,21 19.091,20.822 19.447,20.467C19.802,20.111 19.98,19.711 19.98,19.267C19.98,18.822 19.802,18.422 19.447,18.067L11.447,10.067C11.091,9.711 10.647,9.533 10.113,9.533ZM39.98,1C39.447,1 39.047,1.178 38.78,1.533C38.513,1.889 38.38,2.244 38.38,2.6L38.38,42.6C38.38,43.133 38.513,43.578 38.78,43.933C39.047,44.289 39.447,44.467 39.98,44.467C40.513,44.467 40.913,44.289 41.18,43.933C41.447,43.578 41.58,43.133 41.58,42.6L41.58,2.6C41.58,2.244 41.447,1.889 41.18,1.533C40.913,1.178 40.513,1 39.98,1ZM39.98,67.667C38.202,67.667 36.647,68.333 35.313,69.667C33.98,71 33.313,72.556 33.313,74.333C33.313,76.111 33.98,77.667 35.313,79C36.647,80.333 38.202,81 39.98,81C41.758,81 43.313,80.333 44.647,79C45.98,77.667 46.647,76.111 46.647,74.333C46.647,72.556 45.98,71 44.647,69.667C43.313,68.333 41.758,67.667 39.98,67.667ZM39.98,77.8C39.091,77.8 38.336,77.444 37.713,76.733C37.091,76.022 36.78,75.222 36.78,74.333C36.78,73.444 37.091,72.689 37.713,72.067C38.336,71.444 39.091,71.133 39.98,71.133C40.869,71.133 41.669,71.444 42.38,72.067C43.091,72.689 43.447,73.444 43.447,74.333C43.447,75.222 43.091,76.022 42.38,76.733C41.669,77.444 40.869,77.8 39.98,77.8ZM73.313,1C71.536,1 69.98,1.667 68.647,3C67.313,4.333 66.647,5.889 66.647,7.667C66.647,9.444 67.313,11 68.647,12.333C69.98,13.667 71.536,14.333 73.313,14.333C75.091,14.333 76.647,13.667 77.98,12.333C79.313,11 79.98,9.444 79.98,7.667C79.98,5.889 79.313,4.333 77.98,3C76.647,1.667 75.091,1 73.313,1ZM73.313,11.133C72.424,11.133 71.624,10.778 70.913,10.067C70.202,9.356 69.891,8.556 69.98,7.667C70.069,6.778 70.424,5.978 71.047,5.267C71.669,4.556 72.424,4.244 73.313,4.333C74.202,4.422 75.002,4.778 75.713,5.4C76.424,6.022 76.78,6.778 76.78,7.667C76.78,8.556 76.424,9.356 75.713,10.067C75.002,10.778 74.202,11.133 73.313,11.133ZM6.647,1C4.869,1 3.313,1.667 1.98,3C0.647,4.333 -0.02,5.889 -0.02,7.667C-0.02,9.444 0.647,11 1.98,12.333C3.313,13.667 4.869,14.333 6.647,14.333C8.424,14.333 9.98,13.667 11.313,12.333C12.647,11 13.313,9.444 13.313,7.667C13.313,5.889 12.647,4.333 11.313,3C9.98,1.667 8.424,1 6.647,1ZM6.647,11.133C5.758,10.956 4.958,10.556 4.247,9.933C3.536,9.311 3.224,8.556 3.313,7.667C3.402,6.778 3.758,5.978 4.38,5.267C5.002,4.556 5.758,4.244 6.647,4.333C7.536,4.422 8.336,4.778 9.047,5.4C9.758,6.022 10.069,6.778 9.98,7.667C9.891,8.556 9.536,9.356 8.913,10.067C8.291,10.778 7.536,11.133 6.647,11.133Z" fill="#FFFFFF"/>
</svg>
