<svg width="50" height="50" viewBox="0 0 50 50" fill="none" xmlns="http://www.w3.org/2000/svg" xmlns:xlink="http://www.w3.org/1999/xlink">
<path d="M25,49C21.688,49 18.578,48.375 15.672,47.125C12.766,45.844 10.227,44.117 8.055,41.945C5.883,39.773 4.156,37.234 2.875,34.328C1.625,31.422 1,28.312 1,25C1,21.688 1.625,18.578 2.875,15.672C4.156,12.766 5.883,10.227 8.055,8.055C10.227,5.883 12.766,4.156 15.672,2.875C18.578,1.625 21.688,1 25,1C28.312,1 31.422,1.625 34.328,2.875C37.234,4.156 39.773,5.883 41.945,8.055C44.117,10.227 45.844,12.766 47.125,15.672C48.375,18.578 49,21.688 49,25C49,28.312 48.375,31.422 47.125,34.328C45.844,37.234 44.117,39.773 41.945,41.945C39.773,44.117 37.234,45.844 34.328,47.125C31.422,48.375 28.312,49 25,49ZM25,4.797C22.219,4.797 19.594,5.328 17.125,6.391C14.688,7.453 12.555,8.898 10.727,10.727C8.898,12.555 7.453,14.688 6.391,17.125C5.328,19.594 4.797,22.219 4.797,25C4.797,27.781 5.328,30.406 6.391,32.875C7.453,35.312 8.898,37.445 10.727,39.273C12.555,41.102 14.688,42.547 17.125,43.609C19.594,44.672 22.219,45.203 25,45.203C27.781,45.203 30.406,44.672 32.875,43.609C35.312,42.547 37.445,41.102 39.273,39.273C41.102,37.445 42.547,35.312 43.609,32.875C44.672,30.406 45.203,27.781 45.203,25C45.203,22.219 44.672,19.594 43.609,17.125C42.547,14.688 41.102,12.555 39.273,10.727C37.445,8.898 35.312,7.453 32.875,6.391C30.406,5.328 27.781,4.797 25,4.797ZM25,20.734C23.312,20.734 21.656,20.531 20.031,20.125C18.406,19.688 16.844,19.07 15.344,18.273C13.844,17.477 12.406,16.484 11.031,15.297C9.656,14.109 8.391,12.75 7.234,11.219L10.234,8.922C11.234,10.203 12.297,11.344 13.422,12.344C14.578,13.344 15.781,14.188 17.031,14.875C18.281,15.563 19.578,16.078 20.922,16.422C22.266,16.766 23.625,16.938 25,16.938C26.375,16.938 27.734,16.766 29.078,16.422C30.422,16.078 31.719,15.563 32.969,14.875C34.219,14.188 35.422,13.344 36.578,12.344C37.703,11.344 38.766,10.203 39.766,8.922L42.766,11.219C41.609,12.75 40.344,14.109 38.969,15.297C37.594,16.484 36.156,17.477 34.656,18.273C33.156,19.07 31.594,19.688 29.969,20.125C28.344,20.531 26.688,20.734 25,20.734ZM25,40.375C23.625,40.375 22.344,40.125 21.156,39.625C19.969,39.094 18.922,38.375 18.016,37.469C17.109,36.562 16.406,35.516 15.906,34.328C15.375,33.109 15.109,31.812 15.109,30.438C15.109,29.062 15.375,27.781 15.906,26.594C16.406,25.375 17.109,24.312 18.016,23.406C18.922,22.5 19.969,21.797 21.156,21.297C22.344,20.766 23.625,20.5 25,20.5C26.375,20.5 27.656,20.766 28.844,21.297C30.031,21.797 31.078,22.5 31.984,23.406C32.891,24.312 33.594,25.375 34.094,26.594C34.625,27.781 34.891,29.062 34.891,30.438C34.891,31.812 34.625,33.109 34.094,34.328C33.594,35.516 32.891,36.562 31.984,37.469C31.078,38.375 30.031,39.094 28.844,39.625C27.656,40.125 26.375,40.375 25,40.375ZM25,24.297C23.312,24.297 21.875,24.898 20.688,26.102C19.5,27.305 18.906,28.75 18.906,30.438C18.906,32.125 19.5,33.57 20.688,34.773C21.875,35.977 23.312,36.578 25,36.578C26.688,36.578 28.125,35.977 29.312,34.773C30.5,33.57 31.094,32.125 31.094,30.438C31.094,28.75 30.5,27.305 29.312,26.102C28.125,24.898 26.688,24.297 25,24.297Z" fill="#1B2336"/>
</svg>
